HIERARCHY
ROOT Hips
{
  OFFSET 21.309 103.932 -258.385
  CHANNELS 6 Xposition Yposition Zposition Zrotation Xrotation Yrotation
  JOINT RightUpLeg
  {
    OFFSET -8.9458 -8.66707 0.101652
    CHANNELS 3 Zrotation Xrotation Yrotation
    JOINT RightLeg
    {
      OFFSET 0 -44.4227 1.3727
      CHANNELS 3 Zrotation Xrotation Yrotation
      JOINT RightFoot
      {
        OFFSET 0.253549 -42.0924 -1.46059
        CHANNELS 3 Zrotation Xrotation Yrotation
        JOINT RightToes
        {
          OFFSET 0.04 -4.41509 8.4991
          CHANNELS 3 Zrotation Xrotation Yrotation
          End Site
          {
            OFFSET -0.08 -0.137448 9.77979
          }
        }
      }
    }
  }
  JOINT Spine
  {
    OFFSET 0 11.8905 0
    CHANNELS 3 Zrotation Xrotation Yrotation
    JOINT Spine1
    {
      OFFSET 0 25.6574 0.127663
      CHANNELS 3 Zrotation Xrotation Yrotation
      JOINT HEad
      {
        OFFSET 0 8.73416 0.011341
        CHANNELS 3 Zrotation Xrotation Yrotation
        End Site
        {
          OFFSET -0.29 12.7742 2.51395
        }
      }
      JOINT LeftShoulder1
      {
        OFFSET 8.99 -0.362252 -0.22
        CHANNELS 3 Zrotation Xrotation Yrotation
        JOINT LeftArm
        {
          OFFSET 10.2827 -0.00338 0.322123
          CHANNELS 3 Zrotation Xrotation Yrotation
          JOINT LeftForeArm
          {
            OFFSET 32.7669 0.099144 -1.42434
            CHANNELS 3 Zrotation Xrotation Yrotation
            JOINT LeftHand
            {
              OFFSET 27.5643 0.085362 1.02216
              CHANNELS 3 Zrotation Xrotation Yrotation
              End Site
              {
                OFFSET 16.7443 -0.6 1.50291
              }
            }
          }
        }
      }
      JOINT RightShoulder
      {
        OFFSET -8.99 -0.362252 -0.22
        CHANNELS 3 Zrotation Xrotation Yrotation
        JOINT RightArm
        {
          OFFSET -10.2827 -0.00338 0.322123
          CHANNELS 3 Zrotation Xrotation Yrotation
          JOINT RightForeArm
          {
            OFFSET -32.8971 0.099144 -1.42434
            CHANNELS 3 Zrotation Xrotation Yrotation
            JOINT RightHand
            {
              OFFSET -27.4921 0.085362 1.02216
              CHANNELS 3 Zrotation Xrotation Yrotation
              End Site
              {
                OFFSET -16.6312 -0.6 1.50291
              }
            }
          }
        }
      }
    }
  }
  JOINT LeftUpLeg
  {
    OFFSET 8.9458 -8.66707 0.101652
    CHANNELS 3 Zrotation Xrotation Yrotation
    JOINT LeftLeg
    {
      OFFSET 0 -44.4227 1.3727
      CHANNELS 3 Zrotation Xrotation Yrotation
      JOINT LeftFoot
      {
        OFFSET -0.253549 -42.0924 -1.46059
        CHANNELS 3 Zrotation Xrotation Yrotation
        JOINT LeftToes
        {
          OFFSET -0.04 -4.41509 8.4991
          CHANNELS 3 Zrotation Xrotation Yrotation
          End Site
          {
            OFFSET 0.08 -0.047448 9.77979
          }
        }
      }
    }
  }
}
MOTION
Frames:	7
Frame Time:	0.0166667
20.6403 103.585 -263.897 -0.358615 -0.00464777 -6.73809 7.15379 10.3829 -0.15416 -7.54089 18.4714 6.03965 -4.18816 -5.92304 -0.261862 0.0462048 0.000533964 0.662642 0.538019 3.9663 -0.375195 -1.70401 5.98944 0.0543726 3.39937 -1.71073 0.486766 1.98785e-016 1.59028e-015 1.59028e-015 -89.5242 -24.761 -20.0316 -21.4855 11.1159 3.95858 0.368473 9.90896 -0.00117926 -0.872907 0.115183 -2.00416 94.575 -23.1055 22.8161 16.9154 12.7391 3.21216 -0.369625 9.91382 0.00119886 -4.02745 -26.2634 0.69482 1.98381 25.8716 19.1911 -0.81203 -6.59756 0.0554716 1.09439e-011 -1.73078e-011 -6.69825e-012 
20.8437 103.684 -262.008 -0.146412 -0.630996 -6.69098 6.57134 10.9882 -0.649942 -8.2957 19.8794 5.94571 -2.59296 -4.5239 -0.194785 0.0462048 0.000533964 0.662642 0.706685 3.8676 -0.501148 -2.25971 6.52501 0.105939 3.587 -1.88091 0.373222 1.98785e-016 3.18055e-015 -0 -89.7454 -25.369 -20.3646 -20.8672 10.9794 5.1324 0.368473 9.90896 -0.00117926 -1.20413 0.142743 -1.55954 94.8819 -24.0928 22.1514 16.5508 12.8156 3.61848 -0.369625 9.91382 0.00119886 -4.79821 -24.9882 1.47884 2.69393 26.7203 17.9714 -0.647882 -6.97858 0.0540804 1.17266 -2.01581 0.993957 
21.0568 103.792 -260.155 0.045227 -1.17368 -6.65839 6.02035 11.2874 -1.29163 -9.16631 21.4652 6.07699 -0.926018 -2.88166 -0.156491 0.0462048 0.000533964 0.662642 0.815334 3.79843 -0.601948 -2.70603 6.93976 0.146444 3.70711 -1.95624 0.243892 -0 0 7.95139e-016 -90.0561 -26.0093 -20.7177 -20.2188 10.8565 6.26263 0.368473 9.90896 -0.00117926 -1.58016 0.16242 -1.20362 95.1522 -25.0556 21.4838 16.1989 12.8792 3.95211 -0.369625 9.91382 0.00119886 -5.53522 -23.7219 2.10067 3.28609 27.4402 16.9508 -0.43318 -7.47619 0.0568584 2.26351 -3.78472 1.88345 
21.309 103.932 -258.385 0.166106 -1.47834 -6.64738 5.50261 10.7695 -2.37192 -10.4541 23.4892 6.71007 1.15118 -0.579931 -0.197889 0.0462048 0.000533964 0.662642 0.780299 3.81287 -0.632211 -2.8171 6.99449 0.153767 3.61352 -1.73875 0.0307324 -0 0 1.59028e-015 -90.6494 -26.7833 -21.1076 -19.4721 10.7791 7.29279 0.368473 9.90896 -0.00117926 -2.13115 0.158438 -1.09992 95.3866 -25.9896 20.7623 15.8748 12.9146 4.12836 -0.369625 9.91382 0.00119886 -6.10869 -22.4782 2.37551 3.53118 27.8034 16.3848 0.00211145 -8.34585 0.0748186 2.9642 -4.85431 2.47238 
21.5517 104.081 -256.691 0.277887 -1.67259 -6.69023 5.00282 9.74165 -3.57099 -11.9235 25.851 7.99308 2.9424 2.10435 -0.279512 0.0462048 0.000533964 0.662642 0.615244 3.86689 -0.627652 -2.82699 6.92353 0.149288 3.48245 -1.44298 -0.125037 -1.98785e-016 -1.59028e-015 -7.95139e-016 -91.2826 -27.5234 -21.5501 -18.7405 10.7246 8.22371 0.368473 9.90896 -0.00117926 -2.64311 0.146565 -1.1127 95.537 -26.787 20.1401 15.5911 12.9197 4.10903 -0.369625 9.91382 0.00119886 -6.54603 -21.2721 2.30356 3.42117 27.995 16.3907 0.351446 -9.2876 0.0918077 3.47304 -5.60259 2.91391 
21.7398 104.226 -255.092 0.444478 -1.84333 -6.84471 4.51128 8.34093 -4.76236 -13.5274 28.4903 10.5722 3.57238 5.15168 -0.373929 0.0462048 0.000533964 0.662642 0.231241 3.94618 -0.595445 -2.89279 6.90579 0.147094 3.45171 -1.21849 -0.073496 -1.98785e-016 -3.18055e-015 3.18055e-015 -91.7769 -28.1029 -22.0947 -18.1114 10.6747 9.08635 0.368473 9.90896 -0.00117926 -2.9222 0.137482 -1.17028 95.5416 -27.3145 19.7906 15.3673 12.8794 3.78331 -0.369625 9.91382 0.00119886 -6.83294 -20.111 1.49659 2.69859 28.1036 17.6072 0.278187 -10.0137 0.0932196 3.93484 -6.26977 3.30991 
21.8913 104.358 -253.553 0.608718 -1.95826 -7.04268 4.06847 6.58197 -5.67863 -15.3569 31.4052 13.4249 3.90723 8.20601 -0.499132 0.0462048 0.000533964 0.662642 -0.148521 4.01571 -0.575776 -3.02128 6.86839 0.147142 3.4748 -1.06249 0.0907454 -4.41391e-032 1.59028e-015 1.59028e-015 -92.1181 -28.5015 -22.6382 -17.5897 10.6479 9.73292 0.368473 9.90896 -0.00117926 -3.03888 0.13068 -1.244 95.4906 -27.6424 19.6207 15.1945 12.8141 3.28505 -0.369625 9.91382 0.00119886 -6.94717 -19.0174 0.935845 1.92555 28.16 18.7074 0.0386413 -10.743 0.0847744 4.30005 -6.81461 3.62346 
